<svg width="120" height="14" xmlns="http://www.w3.org/2000/svg" xmlns:xlink="http://www.w3.org/1999/xlink"><use xlink:href="#path0_fill" transform="translate(.385 1.24)"/><use xlink:href="#path1_fill" transform="translate(32.356 1.24)"/><use xlink:href="#path2_fill" transform="translate(16.683 1.24)"/><use xlink:href="#path3_fill" transform="translate(46.875 1.24)"/><g fill="#57AD56"><g transform="translate(67.644 1.24)"><use xlink:href="#path4_fill"/><use xlink:href="#path5_stroke"/></g><g transform="translate(81.058 1.24)"><use xlink:href="#path6_fill"/><use xlink:href="#path7_stroke"/></g><g transform="translate(96.394 1.24)"><use xlink:href="#path8_fill"/><use xlink:href="#path9_stroke"/></g><g transform="translate(111.058 1)"><use xlink:href="#path10_fill"/><use xlink:href="#path11_stroke"/></g></g><defs><path id="path0_fill" d="M9.038.288v6.635c0 2.212-.961 3.125-3.269 3.125-2.307 0-3.269-.913-3.269-3.125V0H.288A.31.31 0 0 0 0 .288V7.02c0 3.702 2.356 5 5.77 5 3.413 0 5.769-1.298 5.769-5V0H9.327c-.144 0-.289.096-.289.288z"/><path id="path1_fill" d="M9.23 1.923c.193 0 .29-.048.337-.192l.625-1.587c.048-.096 0-.144-.096-.144H1.154C.337 0 0 .24 0 .817v10.289c0 .48.24.72.865.72h8.318c.192 0 .288-.047.336-.191l.625-1.587c.048-.096 0-.144-.096-.144H2.452V7.788c0-.72.385-1.057 1.49-1.057H7.26c.192 0 .288-.048.336-.193L8.221 5c.048-.096 0-.144-.096-.144H2.5V1.875h6.73v.048z"/><path id="path2_fill" fill-rule="evenodd" d="M9.183 5.577c.961-.529 1.346-1.442 1.346-2.596C10.529.385 8.413 0 6.202 0H1.154C.337 0 0 .24 0 .817v10.289c0 .48.24.72.865.72h6.202c2.356 0 3.99-.912 3.99-3.268.049-1.443-.528-2.645-1.874-2.981zM2.5 1.875h3.894c1.298 0 1.683.48 1.683 1.49s-.385 1.49-1.683 1.49H2.5v-2.98zm0 8.029h4.375c1.394 0 1.779-.48 1.779-1.587 0-1.105-.385-1.634-1.779-1.634H3.99c-1.105 0-1.49.336-1.49 1.057v2.164z"/><path id="path3_fill" fill-rule="evenodd" d="M8.51 7.067l2.644 4.568c.048.048.048.192-.048.192h-2.26c-.192 0-.24-.048-.336-.192L6.106 7.308H3.942c-1.105 0-1.49.336-1.49 1.057v3.462H.288A.31.31 0 0 1 0 11.539V.817C0 .24.337 0 1.154 0h5.048c2.933 0 4.712.77 4.712 3.654 0 2.211-1.106 3.077-2.404 3.413zM2.404 5.481h4.134c1.539 0 1.875-.577 1.875-1.827 0-1.202-.336-1.779-1.875-1.779H2.404v3.606z"/><path id="path4_fill" d="M8.798 10.77l-.048 1.057H0V0h8.413l.049 1.106h-7.26v4.086h6.25v.962h-6.25v4.615h7.596z"/><path id="path5_stroke" d="M8.75 11.827v.125h.12l.005-.12-.125-.005zm-8.75 0h-.125v.125H0v-.125zM0 0v-.125h-.125V0H0zm8.413 0l.125-.005-.005-.12h-.12V0zm.049 1.106v.125h.13l-.006-.13-.124.005zm-7.26 0V.98h-.125v.125h.125zm0 4.086h-.125v.125h.125v-.125zm6.25 0h.125v-.125h-.125v.125zm0 .962v.125h.125v-.125h-.125zm-6.25 0v-.125h-.125v.125h.125zm0 4.615h-.125v.125h.125v-.125zm7.471-.005l-.048 1.057.25.012.048-1.058-.25-.011zm.077.938H0v.25h8.75v-.25zm-8.625.125V0h-.25v11.827h.25zM0 .125h8.413v-.25H0v.25zm8.289-.12l.048 1.106.25-.01-.049-1.106-.25.01zm.173.976h-7.26v.25h7.26V.98zm-7.385.125v4.086h.25V1.106h-.25zm.125 4.211h6.25v-.25h-6.25v.25zm6.125-.125v.962h.25v-.962h-.25zm.125.837h-6.25v.25h6.25v-.25zm-6.375.125v4.615h.25V6.154h-.25zm.125 4.74h7.596v-.25H1.202v.25z"/><path id="path6_fill" fill-rule="evenodd" d="M2.644 8.75h6.971l1.346 3.077h1.347L6.875 0H5.481L0 11.827h1.298L2.644 8.75zm.433-1.01l2.548-5.72.48-1.203h.049l.48 1.202 2.5 5.721H3.078z"/><path id="path7_stroke" d="M9.615 8.75l.115-.05-.033-.075h-.082v.125zm-6.97 0v-.125h-.083L2.53 8.7l.114.05zm8.316 3.077l-.114.05.033.075h.081v-.125zm1.347 0v.125h.195l-.082-.177-.113.052zM6.875 0l.114-.052-.034-.073h-.08V0zM5.481 0v-.125H5.4l-.034.072.114.053zM0 11.827l-.113-.053-.083.178H0v-.125zm1.298 0v.125h.082l.033-.075-.115-.05zm4.327-9.808l.114.051.002-.004-.116-.047zM3.077 7.74l-.114-.05-.079.175h.193V7.74zM6.106.817V.692H6.02L5.99.771l.116.046zm.048 0L6.27.771 6.239.692h-.085v.125zm.48 1.202l-.115.047.001.003.115-.05zm2.5 5.721v.125h.192l-.077-.175-.114.05zm.481.885h-6.97v.25h6.97v-.25zm1.461 3.152L9.73 8.7l-.23.1 1.347 3.077.23-.1zm1.232-.075H10.96v.25h1.347v-.25zM6.76.052l5.433 11.827.227-.104L6.99-.052 6.76.052zm-1.28.073h1.394v-.25H5.481v.25zM.113 11.88L5.594.053l-.227-.106-5.48 11.827.226.106zm1.185-.178H0v.25h1.298v-.25zM2.53 8.7l-1.346 3.077.229.1L2.759 8.8l-.23-.1zm2.98-6.732L2.964 7.69l.228.101 2.548-5.72-.228-.103zM5.99.771l-.481 1.202.232.093.48-1.202L5.99.77zm.164-.079h-.048v.25h.048v-.25zm.597 1.28L6.27.772l-.232.093.48 1.202.233-.093zM9.249 7.69l-2.5-5.72-.229.1 2.5 5.72.23-.1zm-6.172.175h6.058v-.25H3.077v.25z"/><path id="path8_fill" d="M5.625 1.106v10.72H4.423V1.107H0L.048 0h10.048v1.106H5.625z"/><path id="path9_stroke" d="M5.625 11.827v.125h.125v-.125h-.125zm-1.202 0h-.125v.125h.125v-.125zm0-10.721h.125V.98h-.125v.125zM0 1.106L-.125 1.1l-.006.13H0v-.124zM.048 0v-.125h-.12l-.005.12L.048 0zm10.048 0h.125v-.125h-.125V0zm0 1.106v.125h.125v-.125h-.125zm-4.596 0v10.72h.25V1.107H5.5zm.125 10.596H4.423v.25h1.202v-.25zm-1.077.125V1.106h-.25v10.72h.25zM4.423.98H0v.25h4.423V.98zm-4.298.13L.173.005l-.25-.01L-.125 1.1l.25.011zM.048.125h10.048v-.25H.048v.25zM9.971 0v1.106h.25V0h-.25zm.125.98H5.625v.25h4.471V.98z"/><path id="path10_fill" d="M3.99 12.308c-1.634 0-2.932-.385-3.99-1.01l.192-1.058a7.626 7.626 0 0 0 3.846 1.01c2.212 0 3.366-1.01 3.366-2.452 0-3.125-7.212-1.49-7.212-5.529C.192 1.54 1.49 0 4.52 0c1.394 0 2.644.24 3.654.721l-.192 1.01c-1.106-.433-2.164-.673-3.414-.673-2.355 0-3.22 1.057-3.22 2.115 0 2.98 7.21 1.298 7.21 5.529-.047 2.115-1.586 3.606-4.567 3.606z"/><path id="path11_stroke" d="M0 11.298l-.123-.022-.016.085.075.045.064-.108zm.192-1.058l.062-.108-.153-.087-.032.173.123.022zM8.173.721l.123.024.018-.095-.087-.042-.054.113zm-.192 1.01l-.046.116.14.055.029-.148-.123-.023zm.577 6.97l.125.004v-.003h-.125zM3.99 12.184c-1.616.001-2.882-.374-3.926-.992l-.128.215c1.072.632 2.402 1.025 4.054 1.027v-.25zM.123 11.32l.192-1.057-.246-.045-.192 1.058.246.044zm.008-.97a7.802 7.802 0 0 0 3.907 1.025v-.25a7.451 7.451 0 0 1-3.784-.993l-.123.217zm3.907 1.025c1.123 0 1.995-.256 2.588-.71.598-.458.903-1.109.903-1.867h-.25c0 .684-.272 1.26-.805 1.668-.536.41-1.347.659-2.436.659v.25zm3.49-2.577c0-.845-.494-1.364-1.194-1.725-.69-.356-1.604-.575-2.503-.817-.904-.244-1.785-.512-2.441-.962C.743 4.851.317 4.232.317 3.27h-.25c0 1.057.476 1.748 1.181 2.231.696.478 1.618.754 2.517.997.904.244 1.792.455 2.455.798.652.337 1.059.786 1.059 1.503h.25zM.319 3.27c0-.832.31-1.614.983-2.188C1.975.504 3.025.125 4.52.125v-.25c-1.534 0-2.648.39-3.38 1.016C.405 1.518.067 2.37.067 3.269h.25zM4.518.125c1.383 0 2.605.234 3.6.709l.108-.226C7.202.122 5.925-.124 4.519-.125v.25zM8.05.698l-.192 1.01.246.046.192-1.01L8.05.699zm-.024.916C6.912 1.18 5.831.934 4.567.933v.25c1.236-.001 2.271.235 3.368.664l.091-.233zM4.567.933c-1.195 0-2.03.268-2.57.687a1.926 1.926 0 0 0-.776 1.553h.25c0-.492.2-.984.679-1.356.482-.374 1.256-.634 2.417-.634v-.25zm-3.346 2.24a1.6 1.6 0 0 0 .337.998c.21.26.514.473.86.641.69.333 1.603.538 2.502.778.902.24 1.783.515 2.438.984.647.463 1.075 1.114 1.075 2.128h.25c0-1.102-.474-1.826-1.18-2.331-.696-.499-1.618-.783-2.519-1.023-.904-.241-1.794-.439-2.457-.761-.329-.16-.588-.338-.773-.572a1.254 1.254 0 0 1-.283-.842h-.25zM8.433 8.7c-.024 1.026-.407 1.892-1.14 2.503-.734.613-1.832.98-3.303.98v.25c1.51 0 2.672-.377 3.464-1.038.794-.663 1.204-1.6 1.229-2.69l-.25-.005z"/></defs></svg>